<?xml version="1.0" encoding="utf-8"?>
<!-- Generator: Adobe Illustrator 24.0.2, SVG Export Plug-In . SVG Version: 6.00 Build 0)  -->
<svg version="1.1" id="Layer_1" xmlns="http://www.w3.org/2000/svg" xmlns:xlink="http://www.w3.org/1999/xlink" x="0px" y="0px"
	 viewBox="0 0 400 400" style="enable-background:new 0 0 400 400;" xml:space="preserve">
<style type="text/css">
	.st0{fill:#800E0E;stroke:#FFFFFF;stroke-width:14;stroke-miterlimit:10;}
	.st1{display:none;}
	.st2{display:inline;fill:#FFFFFF;}
	.st3{display:inline;}
	.st4{fill:#FFFFFF;}
	.st5{display:none;fill:none;}
	.st6{display:inline;fill:none;stroke:#FFFFFF;stroke-width:4;stroke-miterlimit:10;}
</style>
<circle class="st0" cx="198.8" cy="200.5" r="188.5"/>
<g id="XMLID_112_" class="st1">
	<path id="XMLID_113_" class="st2" d="M326.7,276l-22.2-48.6c0,0,9.3-40.8,9.3-41.4c0.1-3.5-1.3-6.8-3.7-9.3l-43.9-45.3
		c1.3,2,2.3,4.3,2.8,6.8c1.3,5.8,0,11.6-3.1,16.2l6.5,27.2c1.9,7.7-2.5,15.8-10.1,18.4c-6.3,2.2-2.2,0.8-26.3,9
		c-4.3,2.4-7.2,6.8-7.4,11.8l-2.7,60.5c-0.4,7.8,5.7,14.4,13.5,14.8c0.2,0,0.4,0,0.6,0c7.5,0,13.8-5.9,14.1-13.5l2.3-52.3l20.6-10.6
		l-1.4,6c-0.7,3.1-0.4,6.3,0.9,9.2l24.2,53c3.2,7.1,11.6,10.2,18.7,7C326.8,291.5,330,283.1,326.7,276z"/>
	<path id="XMLID_114_" class="st2" d="M239.8,166.2l-0.1,6.7l-43.8,15c-6.2,2.1-9.4,8.8-7.3,15c1.7,4.9,6.2,8,11.1,8
		c1.3,0,2.6-0.2,3.8-0.6l51.6-17.7c4.7-1.6,7.9-6,8-11l0.2-23.9c-2.8,2.8-6.4,4.9-10.5,5.8L239.8,166.2z"/>
	<path id="XMLID_115_" class="st2" d="M171.8,111.6c9.6,5.5,21.6,2.7,28.1-5.9c0.8,4.1,2.7,8,5.7,11.1c8.4,8.6,22.1,8.8,30.8,0.5
		c8.6-8.4,8.8-22.1,0.5-30.8c-8.4-8.6-22.1-8.9-30.8-0.5c-0.9,0.8-1.6,1.8-2.3,2.7c-1.1-6.1-4.7-11.7-10.5-15
		c-10.4-6-23.7-2.3-29.7,8.1C157.7,92.4,161.3,105.7,171.8,111.6z"/>
	<path id="XMLID_116_" class="st2" d="M198.8,222.2c0,0-37.8-23.5-37.9-23.5l13.4-23.4l5.5,8.1c0.8,1.2,1.9,2.1,3,2.9
		c2.5-3.2,5.9-5.8,10-7.2l21.3-7.3l-0.9,0.2c-2.2,0.5-4.4,0.2-6.3-0.7l-24.2-10.9l-18.8-8.5l45.1,10.2c1.7,0.4,3.4,0.4,5.1,0
		l36.7-7.9c6.4-1.4,10.4-7.6,9-14c-1.4-6.4-7.6-10.4-14-9l-34.2,7.4l-42.6-9.6l13.7,0.3c-0.8-0.7-1.7-1.4-2.7-1.9l-6.9-4
		c-4.3-2.5-9.4-3.1-14.2-1.8c-4.8,1.3-8.9,4.5-11.3,8.8L91.3,233.9l-36.1,38.2c-5.4,5.7-5.1,14.6,0.6,20c5.7,5.4,14.6,5.1,20-0.6
		l37.6-39.8c1-1,1.8-2.2,2.4-3.5l16.7-34.1c0,0,0.1,0.1,0.1,0.1l44.8,27.8l0.6,39.9c0.1,7.7,6.4,13.9,14.1,13.9c0.1,0,0.2,0,0.2,0
		c7.8-0.1,14-6.6,13.9-14.4l-0.8-47.6C205.4,229.2,202.9,224.8,198.8,222.2z"/>
</g>
<g class="st1">
	<path class="st2" d="M132,226.8V177c0-3.6,0.5-7.1,1.5-10.4H99.9c-5.4,0-10.4,2.2-14,5.8c-3.6,3.6-5.8,8.5-5.8,14v39.6
		c0,4.8,1.8,9.3,4.7,12.7c1.5,1.8,3.3,3.3,5.4,4.5v57.6c0,4.2,3.4,7.6,7.6,7.6h46.8v-53.3C136.7,247.9,132,237.6,132,226.8z"/>
	<path class="st2" d="M121.3,157.5c16.5,0,29.9-13.4,29.9-29.9s-13.4-29.9-29.9-29.9s-29.9,13.4-29.9,29.9S104.9,157.5,121.3,157.5z
		"/>
	<path class="st2" d="M224,154.1h-53.8c-6.3,0-12,2.6-16.2,6.7c-4.1,4.1-6.7,9.9-6.7,16.2v49.8c0,5.6,2,10.7,5.4,14.7
		c2,2.4,4.5,4.3,7.3,5.7v73.6c0,4.2,3.4,7.6,7.6,7.6h59c4.2,0,7.6-3.4,7.6-7.6v-73.6c2.8-1.4,5.3-3.4,7.3-5.7
		c3.4-4,5.4-9.1,5.4-14.7V177c0-6.3-2.6-12-6.7-16.2C236,156.7,230.3,154.1,224,154.1z"/>
	<path class="st2" d="M197.1,138.9c19.6,0,35.6-16,35.6-35.6s-16-35.6-35.6-35.6s-35.6,16-35.6,35.6S177.4,138.9,197.1,138.9z"/>
	<path class="st2" d="M309.2,172.3c-3.6-3.6-8.5-5.8-14-5.8h-34.6c1,3.3,1.5,6.9,1.5,10.4v49.8c0,10.8-4.7,21.1-12.7,28.3v53.2
		c0.3,0,0.6,0.1,0.9,0.1h46.9c4.2,0,7.6-3.4,7.6-7.6v-57.6c2.1-1.2,3.9-2.7,5.4-4.5c2.9-3.5,4.7-7.9,4.7-12.7v-39.6
		C315,180.9,312.8,175.9,309.2,172.3z"/>
	<path class="st2" d="M273.8,157.5c16.5,0,29.9-13.4,29.9-29.9s-13.4-29.9-29.9-29.9c-16.5,0-29.9,13.4-29.9,29.9
		S257.3,157.5,273.8,157.5z"/>
</g>
<g class="st1">
	<g class="st3">
		<path class="st4" d="M280.2,302.8l-5.1-42.1c0-0.2-0.1-0.5-0.1-0.7c-3.6-14.8-3.9-55.3-1.5-69.6l6.7-39c0.4-2.3-0.5-4.6-2.2-6.1
			c-2.2-1.8-4.1-3.7-5.9-5.7l-9.7,45.9c-3,16.8-2.6,64,1.9,81.3c0.1,0.2,0.1,0.4,0.1,0.6l5.5,42.6h4c1.8,0,3.6-0.8,4.8-2.2
			C279.9,306.4,280.4,304.6,280.2,302.8z"/>
	</g>
	<g class="st3">
		<path class="st4" d="M133.1,267.4c0-0.2,0.1-0.4,0.1-0.6c4.4-17.3,4.9-64.6,1.9-81.3l-9.7-45.9c-1.8,2-3.8,3.9-5.9,5.7
			c-1.8,1.5-2.6,3.8-2.2,6.1l6.7,39c2.5,14.3,2.1,54.8-1.5,69.6c-0.1,0.2-0.1,0.5-0.1,0.7l-5.1,42.1c-0.2,1.8,0.4,3.7,1.6,5.1
			c1.2,1.4,3,2.2,4.8,2.2h4L133.1,267.4z"/>
	</g>
	<g class="st3">
		<path class="st4" d="M253.9,269.1c-4.8-19.3-5.3-67.3-1.9-85.5c0,0,0-0.1,0-0.1l11.7-55.6c-3.3-6.5-5-13.5-5-20.7V78.8
			c0-3.6-2.9-6.5-6.5-6.5h-21.5c-3.6,0-6.5,2.9-6.5,6.5v31.5c0,12.6-13.1,41.2-25.6,41.5c-12.5-0.3-25.6-28.9-25.6-41.5V78.8
			c0-3.6-2.9-6.5-6.5-6.5h-21.5c-3.6,0-6.5,2.9-6.5,6.5v28.3c0,7.2-1.7,14.2-5,20.7l11.7,55.6c0,0,0,0.1,0,0.1
			c3.3,18.3,2.9,66.2-1.9,85.5l-5.3,40.9h46.7c2.9,0,5.4-1.9,6.2-4.7l8.2-28.3l10.2,28.7c0.9,2.6,3.4,4.3,6.1,4.3h43.7L253.9,269.1z
			"/>
	</g>
</g>
<g class="st1">
	<g class="st3">
		<path class="st4" d="M254.2,194.5h-13.9v6.9c0,19.2-15.6,34.8-34.8,34.8h-6.9c11.5,0,20.8,9.3,20.8,20.8v27.8
			c0,3.8-3.1,6.9-6.9,6.9c-3.8,0-6.9-3.1-6.9-6.9v-8.1c-13.5,4.8-27.8-5.3-27.8-19.6c0-11.5,9.3-20.8,20.8-20.8h-6.9
			c-19.2,0-34.8-15.6-34.8-34.8v-6.9H143c-26.8,0-48.6,21.8-48.6,48.6V264H143c3.8,0,6.9,3.1,6.9,6.9v35.2h97.3v-35.2
			c0-3.8,3.1-6.9,6.9-6.9h48.6v-20.8C302.8,216.3,281,194.5,254.2,194.5z"/>
	</g>
	<g class="st3">
		<path class="st4" d="M261.1,306.1h34.7c3.8,0,6.9-3.1,6.9-6.9v-21.3h-41.7V306.1z"/>
	</g>
	<g class="st3">
		<path class="st4" d="M94.4,299.2c0,3.8,3.1,6.9,6.9,6.9h34.7v-28.3H94.4V299.2z"/>
	</g>
	<g class="st3">
		<circle class="st4" cx="198.6" cy="257" r="6.9"/>
	</g>
	<g class="st3">
		<path class="st4" d="M170.8,201.9c0.3,11.3,9.5,20.4,20.9,20.4h13.7c11.4,0,20.6-9.1,20.9-20.4
			C208.9,210.6,188.3,210.6,170.8,201.9L170.8,201.9z"/>
	</g>
	<g class="st3">
		<path class="st4" d="M216.4,137.7l8-12.7h-51.6l8,12.7C192.4,134.7,204.8,134.7,216.4,137.7z"/>
	</g>
	<g class="st3">
		<path class="st4" d="M247.2,103.7c0-19.2-15.6-34.7-34.7-34.7h-27.8c-19.2,0-34.7,15.6-34.7,34.7v7.4h97.3V103.7z"/>
	</g>
	<g class="st3">
		<path class="st4" d="M198.6,194.5c26.8,0,48.6-21.8,48.6-48.6V125h-6.4l-15.6,24.6c-1.7,2.7-5,3.9-8.1,2.9c-12-4-24-4.4-37.3,0
			c-3,1-6.4-0.2-8.1-2.9L156.3,125H150v20.8C150,172.7,171.8,194.5,198.6,194.5z"/>
	</g>
</g>
<g>
	<g>
		<g>
			<g>
				<path class="st4" d="M274.2,104.9h-10.8V83.3h-21.6v21.6h-86.2V83.3h-21.6v21.6h-10.8c-11.9,0-21.4,9.6-21.4,21.6l-0.1,150.9
					c0,11.9,9.6,21.6,21.6,21.6h150.9c11.9,0,21.6-9.6,21.6-21.6V126.5C295.8,114.5,286.2,104.9,274.2,104.9z M274.2,277.3H123.4
					V158.8h150.9V277.3z"/>
			</g>
			<g>
				<polygon class="st4" points="247.6,191.8 236.2,180.3 183.6,232.9 160.8,210.1 149.3,221.5 183.6,255.8 				"/>
			</g>
		</g>
	</g>
</g>
<path class="st5" d="M233,154"/>
<g class="st1">
	<rect x="83" y="141" class="st2" width="116" height="42"/>
	<rect x="83" y="210" class="st2" width="116" height="42"/>
	<line class="st6" x1="201" y1="162" x2="220" y2="162"/>
	<g class="st3">
		<rect x="223" y="194" class="st4" width="51" height="4"/>
	</g>
	<line class="st6" x1="201" y1="231" x2="220" y2="231"/>
	<g class="st3">
		<rect x="219.5" y="160" class="st4" width="4" height="73"/>
	</g>
</g>
</svg>
