<svg xmlns="http://www.w3.org/2000/svg" width="364" height="364" viewBox="0 0 364 364">
  <g id="Group_4" data-name="Group 4" transform="translate(-812 -383)">
    <circle id="Ellipse_1" data-name="Ellipse 1" cx="177" cy="177" r="177" transform="translate(817 388)" fill="#800e0e" stroke="#fff" stroke-width="10"/>
    <g id="Group_3" data-name="Group 3" transform="translate(-41.176 528.54)">
      <g id="Group_2" data-name="Group 2" transform="translate(967.176 -81.54)">
        <g id="Group_1" data-name="Group 1">
          <path id="Path_1" data-name="Path 1" d="M333.936,316.293a39.885,39.885,0,0,0-10.554-14.271,59.31,59.31,0,0,0-16.669-9.833,204.268,204.268,0,0,0-22.067-7.315q-8.878-2.4-15.592-4.318a61.728,61.728,0,0,1-11.153-4.2,20.086,20.086,0,0,1-6.716-5.157,11.221,11.221,0,0,1-2.278-7.2q0-14.148,21.107-14.151a56.5,56.5,0,0,1,15.35,2.158,104.555,104.555,0,0,1,14.152,5.038,95.388,95.388,0,0,1,10.793,5.516q4.318,2.643,5.038,3.6l17.27-32.62q-5.756-3.357-12.593-6.716a118.559,118.559,0,0,0-14.75-6,131.859,131.859,0,0,0-15.763-4.152V185.46h-38v31.745c-1.483.371-2.955.771-4.406,1.23a59.525,59.525,0,0,0-20.027,10.673A51.294,51.294,0,0,0,213.411,246.5a53.475,53.475,0,0,0-5.038,23.745,46.737,46.737,0,0,0,2.76,16.79,35.2,35.2,0,0,0,8.4,12.712,53.687,53.687,0,0,0,14.271,9.714,141.759,141.759,0,0,0,20.388,7.8q8.872,2.643,16.431,4.8a93.887,93.887,0,0,1,13.072,4.677,29.408,29.408,0,0,1,8.634,5.636,10.737,10.737,0,0,1,3.118,7.914q0,12.719-20.87,12.713a72.813,72.813,0,0,1-19.431-2.64,132.813,132.813,0,0,1-17.386-6,92.851,92.851,0,0,1-13.072-6.716q-5.278-3.357-6.236-4.557l-17.269,34.3a100.866,100.866,0,0,0,16.19,8.875,151.644,151.644,0,0,0,18.109,6.6,137.861,137.861,0,0,0,16.038,3.681v34.392h38v-33.62q4.086-.625,8.088-1.576a60.226,60.226,0,0,0,20.388-8.874A45.509,45.509,0,0,0,332.263,360.8q5.4-9.949,5.4-24.345Q337.654,324.692,333.936,316.293Z" transform="translate(-201.176 -185.46)" fill="#fff" stroke="#fff" stroke-width="10"/>
        </g>
      </g>
    </g>
  </g>
</svg>
